<svg width="24" height="24" viewBox="0 0 24 24" fill="none" xmlns="http://www.w3.org/2000/svg">
<g id="font style">
<path id="Vector" d="M7 18V4H12.561C13.6341 4 14.565 4.35 15.3537 5.05C16.1423 5.75 16.5366 6.63333 16.5366 7.7C16.5366 8.33333 16.3659 8.91667 16.0244 9.45C15.6829 9.98333 15.2276 10.3917 14.6585 10.675V10.825C15.3577 11.0583 15.9228 11.475 16.3537 12.075C16.7846 12.675 17 13.35 17 14.1C17 15.2333 16.5732 16.1667 15.7195 16.9C14.8659 17.6333 13.8699 18 12.7317 18H7ZM9.09756 9.925H12.4146C12.9837 9.925 13.4756 9.73333 13.8902 9.35C14.3049 8.96667 14.5122 8.48333 14.5122 7.9C14.5122 7.31667 14.3049 6.82917 13.8902 6.4375C13.4756 6.04583 12.9837 5.85 12.4146 5.85H9.09756V9.925ZM9.09756 16.1H12.6098C13.2276 16.1 13.7642 15.8917 14.2195 15.475C14.6748 15.0583 14.9024 14.5333 14.9024 13.9C14.9024 13.2833 14.6748 12.7667 14.2195 12.35C13.7642 11.9333 13.2276 11.725 12.6098 11.725H9.09756V16.1Z" fill="black"/>
</g>
</svg>
