<svg xmlns="http://www.w3.org/2000/svg" width="25" height="24" viewBox="0 0 25 24" fill="none">
  <path fill-rule="evenodd" clip-rule="evenodd" d="M2.79961 12.2451C2.79961 7.34526 6.77177 3.3731 11.6716 3.3731C12.9839 3.3731 14.2281 3.65763 15.3472 4.16779C15.6487 4.30524 16.0046 4.17223 16.142 3.87071C16.2795 3.56919 16.1465 3.21334 15.845 3.07589C14.5727 2.49592 13.159 2.1731 11.6716 2.1731C6.10903 2.1731 1.59961 6.68252 1.59961 12.2451C1.59961 17.8076 6.10903 22.317 11.6716 22.317C17.2341 22.317 21.7436 17.8076 21.7436 12.2451C21.7436 11.7968 21.7142 11.3551 21.6573 10.9218C21.6142 10.5932 21.3129 10.3619 20.9843 10.405C20.6558 10.4482 20.4244 10.7495 20.4676 11.078C20.5177 11.4597 20.5436 11.8492 20.5436 12.2451C20.5436 17.1449 16.5714 21.117 11.6716 21.117C6.77177 21.117 2.79961 17.1449 2.79961 12.2451ZM15.1939 9.76565C15.1939 9.22617 14.7566 8.78882 14.2171 8.78882C13.6776 8.78882 13.2402 9.22617 13.2402 9.76565C13.2402 10.3051 13.6776 10.7425 14.2171 10.7425C14.7566 10.7425 15.1939 10.3051 15.1939 9.76565ZM9.12722 8.78882C9.66671 8.78882 10.1041 9.22617 10.1041 9.76565C10.1041 10.3051 9.66671 10.7425 9.12722 10.7425C8.58774 10.7425 8.15039 10.3051 8.15039 9.76565C8.15039 9.22617 8.58774 8.78882 9.12722 8.78882ZM8.89812 13.3222C8.84412 12.9952 8.5353 12.774 8.20836 12.828C7.88142 12.882 7.66016 13.1908 7.71417 13.5178C7.88511 14.5525 8.34031 15.3481 9.03682 15.8943C9.72237 16.432 10.5878 16.6861 11.5144 16.7505L11.5352 16.752H11.5561C12.5512 16.752 13.441 16.5029 14.1292 15.9385C14.8213 15.371 15.2416 14.5404 15.3991 13.5107C15.4492 13.1831 15.2242 12.877 14.8967 12.8269C14.5691 12.7768 14.2629 13.0017 14.2128 13.3293C14.0895 14.1358 13.7822 14.6712 13.3683 15.0106C12.9542 15.3502 12.3661 15.5485 11.5768 15.5519C10.8161 15.4961 10.2135 15.2921 9.77734 14.9501C9.34813 14.6135 9.02696 14.1021 8.89812 13.3222ZM19.0957 3.1C19.0957 2.76863 19.3643 2.5 19.6957 2.5C20.0271 2.5 20.2957 2.76863 20.2957 3.1V5.3H22.4957C22.8271 5.3 23.0957 5.56863 23.0957 5.9C23.0957 6.23137 22.8271 6.5 22.4957 6.5H20.2957V8.9C20.2957 9.23137 20.0271 9.5 19.6957 9.5C19.3643 9.5 19.0957 9.23137 19.0957 8.9V6.5H16.6957C16.3643 6.5 16.0957 6.23137 16.0957 5.9C16.0957 5.56863 16.3643 5.3 16.6957 5.3H19.0957V3.1Z" fill="#181818"/>
</svg>