<svg width="24" height="24" viewBox="0 0 24 24" fill="none" xmlns="http://www.w3.org/2000/svg">
<g id="font style">
<path id="Vector" d="M5 19V17.75H17V19H5ZM11 15.6667C9.55714 15.6667 8.33929 15.1875 7.34643 14.2292C6.35357 13.2708 5.85714 12.0972 5.85714 10.7083V4H7.57143V10.75C7.57143 11.6667 7.9 12.4375 8.55714 13.0625C9.21429 13.6875 10.0286 14 11 14C11.9714 14 12.7857 13.6875 13.4429 13.0625C14.1 12.4375 14.4286 11.6667 14.4286 10.75V4H16.1429V10.7083C16.1429 12.0972 15.6464 13.2708 14.6536 14.2292C13.6607 15.1875 12.4429 15.6667 11 15.6667Z" fill="black"/>
</g>
</svg>
